<svg width="250" height="96" viewBox="0 0 250 96" fill="none" xmlns="http://www.w3.org/2000/svg">
<path d="M46.16 65.36C46.7467 65.36 47.2667 65.5867 47.72 66.04L51.96 70.64C49.6133 73.5467 46.72 75.7733 43.28 77.32C39.8667 78.8667 35.76 79.64 30.96 79.64C26.6667 79.64 22.8 78.9067 19.36 77.44C15.9467 75.9733 13.0267 73.9333 10.6 71.32C8.17333 68.7067 6.30667 65.5867 5 61.96C3.72 58.3333 3.08 54.3733 3.08 50.08C3.08 45.7333 3.77333 41.76 5.16 38.16C6.54667 34.5333 8.49333 31.4133 11 28.8C13.5333 26.1867 16.5467 24.16 20.04 22.72C23.5333 21.2533 27.4 20.52 31.64 20.52C35.8533 20.52 39.5867 21.2133 42.84 22.6C46.12 23.9867 48.9067 25.8 51.2 28.04L47.6 33.04C47.3867 33.36 47.1067 33.64 46.76 33.88C46.44 34.12 45.9867 34.24 45.4 34.24C45 34.24 44.5867 34.1333 44.16 33.92C43.7333 33.68 43.2667 33.4 42.76 33.08C42.2533 32.7333 41.6667 32.36 41 31.96C40.3333 31.56 39.56 31.2 38.68 30.88C37.8 30.5333 36.7733 30.2533 35.6 30.04C34.4533 29.8 33.12 29.68 31.6 29.68C29.0133 29.68 26.64 30.1467 24.48 31.08C22.3467 31.9867 20.5067 33.32 18.96 35.08C17.4133 36.8133 16.2133 38.9467 15.36 41.48C14.5067 43.9867 14.08 46.8533 14.08 50.08C14.08 53.3333 14.5333 56.2267 15.44 58.76C16.3733 61.2933 17.6267 63.4267 19.2 65.16C20.7733 66.8933 22.6267 68.2267 24.76 69.16C26.8933 70.0667 29.1867 70.52 31.64 70.52C33.1067 70.52 34.4267 70.44 35.6 70.28C36.8 70.12 37.8933 69.8667 38.88 69.52C39.8933 69.1733 40.84 68.7333 41.72 68.2C42.6267 67.64 43.52 66.96 44.4 66.16C44.6667 65.92 44.9467 65.7333 45.24 65.6C45.5333 65.44 45.84 65.36 46.16 65.36ZM122.051 21.16V79H112.571V41.64C112.571 40.1467 112.651 38.5333 112.811 36.8L95.3306 69.64C94.504 71.2133 93.2373 72 91.5306 72H90.0106C88.304 72 87.0373 71.2133 86.2106 69.64L68.5306 36.68C68.6106 37.56 68.6773 38.4267 68.7306 39.28C68.784 40.1333 68.8106 40.92 68.8106 41.64V79H59.3306V21.16H67.4506C67.9306 21.16 68.344 21.1733 68.6906 21.2C69.0373 21.2267 69.344 21.2933 69.6106 21.4C69.904 21.5067 70.1573 21.68 70.3706 21.92C70.6106 22.16 70.8373 22.48 71.0506 22.88L88.3706 55C88.824 55.8533 89.2373 56.7333 89.6106 57.64C90.0106 58.5467 90.3973 59.48 90.7706 60.44C91.144 59.4533 91.5306 58.5067 91.9306 57.6C92.3306 56.6667 92.7573 55.7733 93.2106 54.92L110.291 22.88C110.504 22.48 110.731 22.16 110.971 21.92C111.211 21.68 111.464 21.5067 111.731 21.4C112.024 21.2933 112.344 21.2267 112.691 21.2C113.037 21.1733 113.451 21.16 113.931 21.16H122.051ZM165.516 57.16L158.476 37.92C158.129 37.0667 157.769 36.0533 157.396 34.88C157.022 33.7067 156.649 32.44 156.276 31.08C155.929 32.44 155.569 33.72 155.196 34.92C154.822 36.0933 154.462 37.12 154.116 38L147.116 57.16H165.516ZM184.516 79H176.196C175.262 79 174.502 78.7733 173.916 78.32C173.329 77.84 172.889 77.2533 172.596 76.56L168.276 64.76H144.316L139.996 76.56C139.782 77.1733 139.369 77.7333 138.756 78.24C138.142 78.7467 137.382 79 136.476 79H128.076L150.836 21.16H161.796L184.516 79ZM201.303 79H190.503V21.16H201.303V79ZM248.133 70.12V79H214.253V21.16H225.013V70.12H248.133Z" fill="black"/>
<rect x="26" y="12" width="10" height="10" fill="black"/>
<rect x="26" y="78" width="10" height="10" fill="black"/>
</svg>
