<svg width="96" height="96" viewBox="0 0 96 96" fill="none" xmlns="http://www.w3.org/2000/svg">
<circle cx="48" cy="48" r="48" fill="white"/>
<path d="M62.289 63.789C62.633 63.789 62.977 63.8607 63.321 64.004C63.665 64.1187 63.9947 64.3337 64.31 64.649L70.072 70.712C67.5493 74.0087 64.3817 76.5027 60.569 78.194C56.785 79.8567 52.2987 80.688 47.11 80.688C42.3513 80.688 38.08 79.8853 34.296 78.28C30.5407 76.646 27.3443 74.41 24.707 71.572C22.0983 68.7053 20.0917 65.3227 18.687 61.424C17.2823 57.4967 16.58 53.2397 16.58 48.653C16.58 43.9803 17.3397 39.6947 18.859 35.796C20.3783 31.8687 22.514 28.486 25.266 25.648C28.018 22.81 31.3147 20.6027 35.156 19.026C38.9973 17.4493 43.2257 16.661 47.841 16.661C50.1917 16.661 52.399 16.876 54.463 17.306C56.5557 17.7073 58.505 18.2807 60.311 19.026C62.117 19.7427 63.7797 20.617 65.299 21.649C66.8183 22.681 68.1657 23.799 69.341 25.003L64.439 31.582C64.1237 31.9833 63.751 32.356 63.321 32.7C62.891 33.0153 62.289 33.173 61.515 33.173C60.999 33.173 60.5117 33.0583 60.053 32.829C59.5943 32.5997 59.107 32.3273 58.591 32.012C58.075 31.668 57.5017 31.3097 56.871 30.937C56.269 30.5357 55.538 30.1773 54.678 29.862C53.8467 29.518 52.8577 29.2313 51.711 29.002C50.593 28.7727 49.2743 28.658 47.755 28.658C45.347 28.658 43.1397 29.1023 41.133 29.991C39.155 30.8797 37.435 32.184 35.973 33.904C34.5397 35.5953 33.4217 37.688 32.619 40.182C31.845 42.6473 31.458 45.471 31.458 48.653C31.458 51.8637 31.888 54.716 32.748 57.21C33.6367 59.704 34.8263 61.811 36.317 63.531C37.8363 65.2223 39.5993 66.5123 41.606 67.401C43.6127 68.2897 45.7627 68.734 48.056 68.734C49.3747 68.734 50.5787 68.6767 51.668 68.562C52.7573 68.4187 53.775 68.2037 54.721 67.917C55.667 67.6017 56.5557 67.2003 57.387 66.713C58.2183 66.197 59.064 65.552 59.924 64.778C60.268 64.4913 60.6407 64.262 61.042 64.09C61.4433 63.8893 61.859 63.789 62.289 63.789Z" fill="black"/>
</svg>
